<?xml version="1.0" encoding="UTF-8" standalone="no"?>
<svg xmlns="http://www.w3.org/2000/svg" xmlns:svg="http://www.w3.org/2000/svg" version="1.1" style="overflow:visible" viewBox="-250 -250 500 500" height="500px" width="500px">
  <rect fill-opacity="0" fill="rgb(0,0,0)" height="500" width="500" y="-250" x="-250" />
  <svg version="1.1" y="-250" x="-250" viewBox="-250 -250 500 500" height="500px" width="500px" style="overflow:visible">
    <g transform="rotate(0,0,0)" stroke-linejoin="round" fill="#fff">
      <path stroke-linecap="butt" stroke-linejoin="round" stroke-width="2" stroke-opacity="1" stroke="rgb(68,68,68)" fill="rgb(255,255,255)" d="m0.22431-207.000004c-15.22118 0-23.61194 14.84035-21.02005 29.09293c1.28402 7.06117 4.099999 14.01264 8.6761 18.55082c-0.0009 3.9619-0.29479 8.406956-1.3757 12.026244c-2.55317 8.54917-10.54277 11.1053-18.54317 12.82906c-29.39361 6.33317-18.9583 27.22716-25.39674 70.62058c-4.69364 31.6338-0.50313 47.72286-0.50313 57.25806c0 9.53518-2.82238 16.04674-1.95619 23.84829c0.86619 7.80152 5.86021 14.95412 8.21873 16.045559c3.24066 1.49967 5.89173-4.66553 3.50771-13.27624c-0.45889-1.65746 2.53083-6.22275 2.67566-11.07732c0.20086-6.72959-1.65887-11.21938-1.65887-16.00332c0-8.23493 3.3608-23.20884 3.54824-42.62796c0.15149-15.70392 7.0718-39.26182 7.0718-39.26182c9.23236 28.07484 1.85162 42.36801-0.0106 71.87407c-3.34568 53.01581 9.16436 89.68238 8.57766 102.82966c-0.4907 10.99518-0.25264 19.59076 3.64497 39.09456c3.89771 19.5038 8.57964 48.22736 8.14659 56.4623c-0.43314 8.23493-10.4509 13.3774-11.15478 19.89587c-0.58887 5.45328 14.11244 7.60285 18.01015 4.13551c3.8977-3.46735 9.0679-13.44561 7.14746-21.26733c-2.58244-10.51796 1.41146-47.55706-2.037171-70.28959c-1.61411-10.63991-3.25425-16.87656-1.53044-28.80596c3.15429-21.82821 3.1124-68.48069 1.75561-75.23947h7.96366c-1.3566 6.75878-1.3984 53.41126 1.75562 75.23947c1.72381 11.9294 0.0839 18.16606-1.53045 28.80596c-3.44853 22.73252 0.54537 59.77163-2.03707 70.28959c-1.92044 7.82172 3.24975 17.79998 7.14746 21.26733c3.89762 3.46734 18.59893 1.31777 18.01015-4.13551c-0.70398-6.51847-10.72173-11.66094-11.15478-19.89587c-0.43314-8.23494 4.24897-36.9585 8.14659-56.4623c3.8977-19.5038 4.135659-28.09938 3.64497-39.09456c-0.58679-13.14728 11.92332-49.81385 8.57757-102.82966c-1.86208-29.50606-9.24443-43.79923-0.0123-71.87407c0 0 6.92027 23.5579 7.07181 39.26182c0.1874 19.41912 3.5482 34.39303 3.5482 42.62796c0 4.78394-1.85791 9.27373-1.65712 16.003319c0.14485 4.85457 3.13454 9.41986 2.67566 11.07732c-2.384 8.61071 0.26708 14.77591 3.50774 13.27624c2.3585-1.09144 7.35259-8.24404 8.21873-16.04556c0.86615-7.80155-1.95616-14.31311-1.95616-23.84829c0-9.5352 4.1905-25.62426-0.50313-57.25806c-6.43843-43.39342 3.99509-64.28741-25.39852-70.62058c-8.00032-1.72376-15.99001-4.27989-18.54317-12.82906c-1.04101-3.485848-1.35364-7.742424-1.37742-11.593154c4.84334-4.52102 7.80244-11.69338 9.12816-18.98391c2.59189-14.25258-5.79869-29.09293-21.01997-29.09293z" />
    </g>
  </svg>
</svg>
