<?xml version="1.0" encoding="UTF-8"?>
<svg id="_レイヤー_1" data-name="レイヤー_1" xmlns="http://www.w3.org/2000/svg" version="1.1" viewBox="0 0 595.28 841.89">
  <!-- Generator: Adobe Illustrator 30.3.0, SVG Export Plug-In . SVG Version: 2.1.3 Build 182)  -->
  <g id="LKy9eU">
    <path d="M297.39,466.55c-2.78,40.55-4.68,80.19-9.58,120.33-1.35,11.09-1.65,21.33-1.03,32.4,1.16,20.74.73,40.78-.85,61.5l-3.86,50.49-.12,35.81c-.02,7.3.29,14.26-.84,21.38-1.65,10.41-8.79,18.15-19.04,20.99-13.5,3.73-37.2,3.06-42.72-9.57-2.66-6.09-2.16-13.14.81-18.96l7.34-14.37c3.52-6.89,6.23-13.69,5.57-21.51l-2-23.74-5.26-42.24c-2.52-20.26-3.23-39.95-2.15-60.32.76-14.34,1.08-28.12-.77-42.37l-4.25-32.86c-4-30.89-6.15-61.4-6.06-92.6.07-23.58,2.38-46.06,6.79-69.11,5.92-30.96,8.71-59.73,4.58-91.41-4.84,22.99-8.47,45.19-11.37,68.19l-6.69,52.98c-2.1,16.6-1.8,32.62-.59,49.28.85,11.7.3,27.16-10,32.33-5.99,3-12.97,1.54-18.2-2.53-10.6-8.25-14.08-24.47-14.8-38.02-.64-12.1-.65-23.59-.04-35.86,2-40.07,4.44-79.59,8.28-119.56,2.11-22.02,4.84-43.31,8.34-64.96,1.28-7.89,3.37-15.13,6.54-22.29,7.9-17.81,21.22-26.48,39.7-31.31l20.91-5.48c4.05-1.06,7.89-2.87,11.4-5,7.83-4.77,8.92-12.55,7.31-21.34-26.07-23.85-30.06-67.99-8.61-95.58,15.26-19.63,42.18-26.42,64.86-15.92,13.25,6.13,23.03,17.28,28.32,30.91,8.08,20.79,6.43,44.01-3.94,63.64-3.55,6.73-8.31,11.75-13.37,17.29-.98,3.93-.85,8.91.39,12.79,3.43,10.68,18.97,13.28,29.07,16.15l19.15,5.44c14.86,5.43,26.03,16.36,31.7,31.17,3.05,7.98,4.77,15.86,6.05,24.55,5.66,38.27,9.19,76.37,11.34,115.07l3.37,60.75.43,36.62c.1,8.21-1.4,16.11-3.81,23.82-2.02,6.48-5.26,12.29-10.37,16.62s-11.98,6.09-18.09,3.44c-10.88-4.73-11.64-20.83-10.79-32.74,1.16-16.25,1.54-31.86-.43-48.11l-6.48-53.4c-2.84-23.43-6.36-46.03-11.2-69.54-5.35,33.82-.84,64.29,5.17,97.29,3,16.47,4.87,32.34,5.42,49.17.92,28.29-.27,55.88-3.31,83.97l-6.57,49.2c-2.09,15.66-2.75,30.54-1.89,46.35,1.14,20.82.62,40.94-2.2,61.59l-5.86,42.87-2.29,23.37c-.75,7.65,1.3,14.74,4.86,21.39l6.35,11.88c2.66,4.97,4.09,10.37,3.98,16.07-.13,6.99-4.13,12.7-10.8,15.25-10.83,4.14-23.07,4.35-34.22,1.03-19.2-5.7-20.1-24-19.2-42.1.69-13.9.64-27.15-.35-41.08l-3.71-52.24c-1.28-18.02-1.21-35.38-.07-53.34.62-10.64.38-20.46-.46-31.17-4.83-40.86-7.01-81.27-9.79-122.73ZM297.02,458.84c4.64-.3,8.23,2.75,8.42,7.45,1.51,38.25,4.24,75.98,8.34,114.17,1.55,14.44,2.17,27.89,1.26,42.31-1.12,17.83-.96,34.96.31,52.78l3.6,50.46c1.03,14.51.91,28.34.2,42.81s-.22,28.91,13.82,33.08c11.28,3.35,32.41,2.65,34.95-6.28,1.15-4.05.6-8.52-1.29-12.19l-6.58-12.8c-4.51-8.77-7.71-17.66-6.71-27.61l3.02-30.05,5.79-43.41c2.51-18.81,2.33-37.16,1.34-56.16-.79-15.17,0-29.51,1.98-44.54l6.81-51.72c2.14-20.5,3.16-40.35,3.41-60.98.3-24.31-2.46-47.6-6.29-71.47l-4.55-28.34c-3.53-21.99-3.31-43.83-.42-65.84l3.07-23.39c.25-1.93,1.72-3.47,3.54-3.76,1.54-.25,3.75.92,4.17,2.8,3.71,16.82,7.3,33.08,9.62,50.23l11.69,86.34c2.7,19.97,2.79,39.35,1.28,59.31-.65,8.57-.25,22.17,6.7,24.67,3.63,1.31,7.6-.26,10.42-2.71,8.47-7.37,11.32-25.73,11.09-37.11l-.73-37.1-3.81-66.89c-2.04-35.74-5.58-70.84-10.9-106.13-3.1-20.55-9.77-38.27-29.64-46.75-13.89-5.93-27.8-6.48-42.6-13.58-9.49-4.55-14.99-12.95-14.41-23.7.17-3.08-.37-7.95,2.18-10.39,12.56-12.01,19.8-27.71,20.54-45.25.52-12.32-1.67-24.03-7.56-34.66-12-21.66-37.96-30.23-60.46-19.62-30.03,14.16-35.96,55.12-20.16,84.17,3.15,5.78,7.19,10.23,11.74,14.79,4.08,4.08,3.57,18.87-1.47,26-9.74,13.78-33.39,14.69-50.87,21.23-19.33,7.23-28.14,23.92-31.38,43.81-2.95,18.13-5.46,35.87-7.29,54.29-4.56,45.83-7.7,91.27-9.78,137.26-.83,18.29-1.58,53.11,14.14,61.55,2.68,1.44,5.7,1.9,8.47.37,6.44-3.56,6.29-16.61,5.69-25.45-1.26-18.74-1.2-36.88,1.19-55.49l6.96-54.14,9.28-56.36,6.2-29.02c.37-1.76,3.06-2.84,4.46-2.49,1.64.4,2.74,1.92,3,3.78,5.78,41.36,6.77,68.18-.79,109.84-3.43,18.89-6.39,37.11-7.39,56.34-2.23,43,2.44,89.27,8.58,131.99,2.36,16.43,3.29,32.11,2.27,48.73-1.27,20.72-.97,40.76,1.55,61.32l5.7,46.55,1.86,22.91c.69,8.52-1.85,16.36-5.76,23.79l-6.49,12.35c-1.75,3.32-2.82,7.07-3.11,10.81-.35,4.51,2.25,8.33,6.67,9.75,9.14,2.93,19.33,3.21,28.55.51,14.25-4.16,14.72-18.29,14.06-32.58-.8-17.23-.4-33.75.91-50.99l3.65-48.13c1.28-16.84,1.05-33.02.25-49.83-.49-10.38-.48-20.22.58-30.49l3.83-37.08,5.88-86.69c.29-4.24,2.84-7.07,7.41-7.37Z"/>
  </g>
</svg>